<svg xmlns="http://www.w3.org/2000/svg" width="32" height="32" viewBox="0 0 32 32"><defs><style>.a,.b{fill:none;}.b{stroke:#092a5e;stroke-linecap:round;stroke-linejoin:round;stroke-width:1.5px;}</style></defs><rect class="a" width="32" height="32"/><g transform="translate(2.667 2.667)"><circle class="b" cx="13.333" cy="13.333" r="13.333"/><path class="b" d="M52.426,43.067v-1.6q-.088-.8.374-.8a3.116,3.116,0,0,0,3.067-3.333A3.334,3.334,0,0,0,52.533,34,3.246,3.246,0,0,0,50,34.8" transform="translate(-39.333 -27.6)"/><path class="b" d="M58,83.533a.533.533,0,0,1,1.067,0" transform="translate(-45.417 -63.533)"/><path class="b" d="M59.067,85A.533.533,0,0,1,58,85" transform="translate(-45.417 -65)"/></g></svg>