<svg xmlns="http://www.w3.org/2000/svg" width="32" height="32" viewBox="0 0 32 32"><defs><style>.a,.b{fill:none;}.b{stroke:#092a5e;stroke-linecap:round;stroke-linejoin:round;stroke-width:1.5px;}</style></defs><rect class="a" width="32" height="32"/><g transform="translate(2.667 2.667)"><path class="b" d="M36.533,23.333A13.267,13.267,0,1,1,23.253,10,13.3,13.3,0,0,1,36.533,23.333Z" transform="translate(-10 -10)"/><path class="b" d="M42.3,49.387,34.54,44.8a4.443,4.443,0,0,0,2.56-3.947V37.627c0-2.4-1.04-4.427-4.613-4.427-3.44,0-4.693,2.133-4.693,4.427v3.227A4.3,4.3,0,0,0,30.087,44.8L22.7,49.28" transform="translate(-19.313 -27.013)"/></g></svg>