<svg xmlns="http://www.w3.org/2000/svg" xmlns:xlink="http://www.w3.org/1999/xlink" width="32" height="32" viewBox="0 0 32 32"><defs><style>.a,.c{fill:none;}.b{clip-path:url(#a);}.c{stroke:#092a5e;stroke-linecap:round;stroke-linejoin:round;stroke-width:1.5px;}</style><clipPath id="a"><rect class="a" width="32" height="32"/></clipPath></defs><g class="b"><rect class="a" width="32" height="32"/><g transform="translate(4.8 4.8)"><path class="c" d="M40.212,31.3l-5.775-2.377L23.775,24.532,18,22.155c1.523-3.7,7.5-5.6,14.161-2.853S41.735,27.594,40.212,31.3ZM28.933,26.8,23.207,41.059" transform="translate(-18 -17.999)"/><path class="c" d="M40.574,25.77A9.243,9.243,0,0,1,43.7,22.531a18,18,0,0,1,4.89-1.785l.492-1.195m1.91,10.506a12.01,12.01,0,0,0-.184-4.6,18,18,0,0,0-2.218-4.71" transform="translate(-34.554 -19.137)"/></g></g></svg>