<svg xmlns="http://www.w3.org/2000/svg" width="32" height="32" viewBox="0 0 32 32"><defs><style>.a,.b{fill:none;}.b{stroke:#092a5e;stroke-linecap:round;stroke-linejoin:round;stroke-width:1.5px;}</style></defs><rect class="a" width="32" height="32"/><g transform="translate(0 0.996)"><path class="b" d="M74.26,27.7a2.659,2.659,0,0,0-1.92-1.36,2.6,2.6,0,0,0-.053-2.347,2.638,2.638,0,0,0-3.573-1.067c-1.867.987-3.813,7.413-3.813,7.413s6.427,1.947,8.267.96A2.685,2.685,0,0,0,74.26,27.7Z" transform="translate(-47.593 -16.58)"/><path class="b" d="M21.126,54.935a2.659,2.659,0,0,0,1.92,1.36,2.6,2.6,0,0,0,.053,2.347,2.638,2.638,0,0,0,3.573,1.067c1.867-.987,3.813-7.413,3.813-7.413s-6.427-1.92-8.293-.907A2.6,2.6,0,0,0,21.126,54.935Z" transform="translate(-15.26 -37.468)"/><path class="b" d="M35.1,13.775a2.659,2.659,0,0,0-1.36,1.92,2.6,2.6,0,0,0-2.347.053,2.638,2.638,0,0,0-1.067,3.573c.987,1.867,7.413,3.813,7.413,3.813s1.947-6.427.96-8.267A2.709,2.709,0,0,0,35.1,13.775Z" transform="translate(-22.006 -9.882)"/><path class="b" d="M62.233,66.86a2.659,2.659,0,0,0,1.36-1.92,2.6,2.6,0,0,0,2.347-.053,2.638,2.638,0,0,0,1.067-3.573c-.987-1.867-7.413-3.813-7.413-3.813s-1.947,6.427-.96,8.267A2.662,2.662,0,0,0,62.233,66.86Z" transform="translate(-42.793 -42.167)"/><path class="b" d="M36.479,56.369s-1.875,7.813-7.187,10.5" transform="translate(-20.167 -39.307)"/></g></svg>