<svg xmlns="http://www.w3.org/2000/svg" width="32" height="32" viewBox="0 0 32 32"><defs><style>.a,.b{fill:none;}.b{stroke:#092a5e;stroke-linecap:round;stroke-linejoin:round;stroke-width:1.5px;}</style></defs><rect class="a" width="32" height="32"/><g transform="translate(4 4)"><path class="b" d="M46.938,51.689a4.75,4.75,0,1,1,4.75-4.75A4.75,4.75,0,0,1,46.938,51.689Z" transform="translate(-34.938 -34.939)"/><path class="b" d="M39,28.333V25.667l-3.056-1.333h0a9.289,9.289,0,0,0-.733-1.774l1.217-3.1-1.886-1.886-3.1,1.218a9.267,9.267,0,0,0-1.774-.733h0L28.333,15H25.667l-1.333,3.056h0a9.276,9.276,0,0,0-1.775.733l-3.1-1.218-1.886,1.886,1.217,3.1a9.285,9.285,0,0,0-.734,1.774h0L15,25.667v2.667l3.055,1.333v0a9.281,9.281,0,0,0,.734,1.776l-1.217,3.1,1.886,1.886,3.1-1.217a9.294,9.294,0,0,0,1.775.734h0L25.667,39h2.667l1.333-3.055h0a9.292,9.292,0,0,0,1.775-.734l3.1,1.217,1.886-1.886-1.217-3.1a9.3,9.3,0,0,0,.734-1.775v0Z" transform="translate(-15 -15)"/></g></svg>