<svg xmlns="http://www.w3.org/2000/svg" width="32" height="32" viewBox="0 0 32 32"><defs><style>.a,.b{fill:none;}.b{stroke:#092a5e;stroke-linecap:round;stroke-linejoin:round;stroke-width:1.5px;}</style></defs><rect class="a" width="32" height="32"/><g transform="translate(5.333 3.667)"><line class="b" x2="17.333" transform="translate(4)"/><line class="b" x2="14.667" transform="translate(0 4.667)"/><path class="b" d="M0,0H21.333V4H0Z" transform="translate(0 20.667)"/><line class="b" y1="20.667" transform="translate(21.333)"/><path class="b" d="M41.251,64.523V61.25H33.978v3.273a3.435,3.435,0,0,0,3.636,3.394A3.435,3.435,0,0,0,41.251,64.523Z" transform="translate(-30.251 -48.583)"/><path class="b" d="M27.333,61.25h-.788a1.671,1.671,0,0,0,0,3.333h.788" transform="translate(-23.667 -48.583)"/><line class="b" y2="16" transform="translate(14.667 4.667)"/><line class="b" y2="8" transform="translate(4)"/><line class="b" y2="3.333" transform="translate(10.667 4.667)"/><line class="b" x2="6.667" transform="translate(4 8)"/><line class="b" y2="1.333" transform="translate(7.333 8)"/></g></svg>