<svg xmlns="http://www.w3.org/2000/svg" xmlns:xlink="http://www.w3.org/1999/xlink" width="32" height="32" viewBox="0 0 32 32"><defs><style>.a,.c{fill:none;}.b{clip-path:url(#a);}.c{stroke:#092a5e;stroke-linecap:round;stroke-linejoin:round;stroke-width:1.5px;}</style><clipPath id="a"><rect class="a" width="32" height="32"/></clipPath></defs><g class="b"><rect class="a" width="32" height="32"/><g transform="translate(3.2 2.667)"><path class="c" d="M28.823,66.939H17.333L20,66.956c2.667,0,2.667-4,1.333-4-2.667,0-4-.016-4-.016A5.226,5.226,0,0,0,12,68.289v6.667l18.044-3.572,6.415-4.178A2,2,0,0,0,34.5,63.717L28.824,66.9" transform="translate(-12 -48.822)"/><line class="c" y2="5.333" transform="translate(13.333 5.333)"/><line class="c" x2="4" transform="translate(11.333 8)"/><line class="c" y2="5.333" transform="translate(20.8 2.667)"/><line class="c" x2="4" transform="translate(18.8 5.333)"/><line class="c" y2="5.333" transform="translate(7.467)"/><line class="c" x2="4" transform="translate(5.467 2.667)"/></g></g></svg>