<svg xmlns="http://www.w3.org/2000/svg" width="32" height="32" viewBox="0 0 32 32"><defs><style>.a,.b,.c{fill:none;}.b,.c{stroke:#092a5e;stroke-linecap:round;stroke-width:1.5px;}.c{stroke-linejoin:round;}</style></defs><rect class="a" width="32" height="32"/><g transform="translate(4 6.667)"><path class="b" d="M2.133,0H21.867A2.133,2.133,0,0,1,24,2.133v14.4a2.133,2.133,0,0,1-2.133,2.133H2.133A2.133,2.133,0,0,1,0,16.533V2.133A2.133,2.133,0,0,1,2.133,0Z"/><path class="c" d="M55,45h8" transform="translate(-44.333 -39.667)"/><path class="c" d="M55,60h4.541" transform="translate(-44.333 -50.667)"/><path class="c" d="M39,80h2.133" transform="translate(-32.6 -65.333)"/><path class="c" d="M58,80h9.067" transform="translate(-46.533 -65.333)"/><path class="c" d="M27,80h0" transform="translate(-23.8 -65.333)"/><path class="c" d="M31.278,57.886a3.023,3.023,0,0,0-4.278,0" transform="translate(-23.8 -48.467)"/><circle class="c" cx="1.067" cy="1.067" r="1.067" transform="translate(4.267 4.267)"/></g></svg>