<svg xmlns="http://www.w3.org/2000/svg" width="32" height="32" viewBox="0 0 32 32"><defs><style>.a,.b{fill:none;}.b{stroke:#092a5e;stroke-linecap:round;stroke-linejoin:round;stroke-width:1.5px;}</style></defs><rect class="a" width="32" height="32"/><g transform="translate(2.98 3.236)"><path class="b" d="M58.786,26.638a5.532,5.532,0,0,1-3.675-1.569c-2.495-2.495-1.976-7.059,1.159-10.194s7.7-3.654,10.194-1.159S68.44,20.776,65.3,23.911q-.352.352-.726.659" transform="translate(-42.237 -12.138)"/><path class="b" d="M39.815,70.374s2.8-2.8,8.689-3.6" transform="translate(-32.178 -52.207)"/><path class="b" d="M39.815,56.372s2.8-2.8,3.6-8.689" transform="translate(-32.178 -38.204)"/><rect class="b" width="9.935" height="1.67" transform="translate(0 24.58) rotate(-45)"/><circle class="b" cx="3.121" cy="3.121" r="3.121" transform="translate(16.147 9.848)"/></g></svg>