<svg xmlns="http://www.w3.org/2000/svg" xmlns:xlink="http://www.w3.org/1999/xlink" width="32" height="32" viewBox="0 0 32 32"><defs><style>.a,.c{fill:none;}.b{clip-path:url(#a);}.c{stroke:#092a5e;stroke-linecap:round;stroke-linejoin:round;stroke-width:1.5px;}</style><clipPath id="a"><rect class="a" width="32" height="32"/></clipPath></defs><g class="b"><rect class="a" width="32" height="32"/><g transform="translate(2.564 2.499)"><path class="c" d="M13.735,81.954a13.363,13.363,0,0,0-4.119,2.72s3.287,3.284,7.341,3.284a10.7,10.7,0,0,0,6.007-2.187" transform="translate(-9.616 -63.932)"/><path class="c" d="M26.638,61.944a10.7,10.7,0,0,0,6.007,2.187c4.054,0,7.341-3.284,7.341-3.284a13.41,13.41,0,0,0-4-2.669M21.428,52.4a16.325,16.325,0,0,0-6.8-2.937s-.25,5.325,2.778,8.665c.087.1.175.19.268.283,2.644,2.644,6.765,3.007,8.322,3.047" transform="translate(-13.29 -40.105)"/><path class="c" d="M59.691,61.421s5.731.361,9.043-2.951c.1-.1.2-.21.3-.319,2.989-3.347,2.65-8.724,2.65-8.724a16.367,16.367,0,0,0-6.793,2.949" transform="translate(-46.338 -40.079)"/><path class="c" d="M44.9,35.724s4.532-4.386,5.291-9.056a10.071,10.071,0,0,0,.133-1.621c0-5.9-5.424-10.677-5.424-10.677s-5.254,4.78-5.254,10.677a10.415,10.415,0,0,0,.129,1.618C40.584,31.794,44.9,35.724,44.9,35.724Z" transform="translate(-31.64 -14.37)"/></g></g></svg>