<svg xmlns="http://www.w3.org/2000/svg" xmlns:xlink="http://www.w3.org/1999/xlink" width="32" height="32" viewBox="0 0 32 32"><defs><style>.a,.c{fill:none;}.b{clip-path:url(#a);}.c{stroke:#092a5e;stroke-linecap:round;stroke-linejoin:round;stroke-width:1.5px;}</style><clipPath id="a"><rect class="a" width="32" height="32"/></clipPath></defs><g class="b"><rect class="a" width="32" height="32"/><g transform="translate(4 4)"><path class="c" d="M38.533,34.153c-.1-.108-4.123-4.135-4.123-4.135a1.56,1.56,0,0,0-2.062,0L30.459,31.74c-.209-.035-1.767-.3-4.865-3.413s-3.307-4.609-3.342-4.818L24,21.646a1.551,1.551,0,0,0,.017-2.052s-4.007-4.027-4.115-4.126a1.718,1.718,0,0,0-2.477.128l-1.256,1.255c-2.7,3.21-.748,8.07,6.038,14.875S33.9,40.543,37.1,37.84l1.311-1.2a1.734,1.734,0,0,0,.125-2.489" transform="translate(-15 -15)"/></g></g></svg>