<svg xmlns="http://www.w3.org/2000/svg" xmlns:xlink="http://www.w3.org/1999/xlink" width="32" height="32" viewBox="0 0 32 32"><defs><style>.a,.c{fill:none;}.b{clip-path:url(#a);}.c{stroke:#092a5e;stroke-linecap:round;stroke-linejoin:round;stroke-width:1.5px;}</style><clipPath id="a"><rect class="a" width="32" height="32"/></clipPath></defs><g class="b"><rect class="a" width="32" height="32"/><g transform="translate(5.333 4)"><path class="c" d="M37.333,23H26.667A2.6,2.6,0,0,0,24,25.578v2.756H22.667A2.675,2.675,0,0,1,20,25.667v-8A2.675,2.675,0,0,1,22.667,15h12a2.6,2.6,0,0,1,2.667,2.578Z" transform="translate(-20 -15)"/><path class="c" d="M49.667,45h-12A2.6,2.6,0,0,0,35,47.578v8a2.752,2.752,0,0,0,2.667,2.756h5.355l5.311,5.422V58.333h1.333a2.675,2.675,0,0,0,2.667-2.667v-8A2.675,2.675,0,0,0,49.667,45Z" transform="translate(-31 -37)"/></g></g></svg>