<svg xmlns="http://www.w3.org/2000/svg" width="32" height="32" viewBox="0 0 32 32"><defs><style>.a,.b,.c{fill:none;}.b,.c{stroke:#092a5e;stroke-linecap:round;stroke-width:1.5px;}.c{stroke-linejoin:round;}</style></defs><rect class="a" width="32" height="32"/><g transform="translate(2.133 7.467)"><path class="b" d="M1.6,0H2.667a1.6,1.6,0,0,1,1.6,1.6V15.467a1.6,1.6,0,0,1-1.6,1.6H1.6a1.6,1.6,0,0,1-1.6-1.6V1.6A1.6,1.6,0,0,1,1.6,0Z" transform="translate(19.2)"/><path class="c" d="M97.6,52.533H96V44h1.6a1.6,1.6,0,0,1,1.6,1.6v5.333A1.6,1.6,0,0,1,97.6,52.533Z" transform="translate(-72.533 -39.733)"/><path class="c" d="M15.2,52.533H13.6a1.6,1.6,0,0,1-1.6-1.6V45.6A1.6,1.6,0,0,1,13.6,44h1.6Z" transform="translate(-10.933 -39.733)"/><path class="b" d="M1.6,0H2.667a1.6,1.6,0,0,1,1.6,1.6V15.467a1.6,1.6,0,0,1-1.6,1.6H1.6a1.6,1.6,0,0,1-1.6-1.6V1.6A1.6,1.6,0,0,1,1.6,0Z" transform="translate(4.267)"/><line class="c" x1="10.667" transform="translate(8.533 6.933)"/><line class="c" x1="10.667" transform="translate(8.533 10.133)"/><path class="c" d="M108,56a1.067,1.067,0,0,1,1.067,1.067h0A1.067,1.067,0,0,1,108,58.133" transform="translate(-81.333 -48.533)"/><path class="c" d="M9.067,58.133A1.067,1.067,0,0,1,8,57.067H8A1.067,1.067,0,0,1,9.067,56" transform="translate(-8 -48.533)"/></g></svg>