<svg xmlns="http://www.w3.org/2000/svg" width="32" height="32" viewBox="0 0 32 32"><defs><style>.a,.b{fill:none;}.b{stroke:#092a5e;stroke-linecap:round;stroke-linejoin:round;stroke-width:1.5px;}</style></defs><rect class="a" width="32" height="32"/><g transform="translate(3.569 2.012)"><g transform="translate(7.03)"><path class="b" d="M65.362,41.032a6.072,6.072,0,0,0,3.663-5.7V28.01H55.355v7.327a6.762,6.762,0,0,0,.153,1.451" transform="translate(-51.193 -22.552)"/><path class="b" d="M87.114,7.544c.689.495-1.042,2.014-.245,2.574" transform="translate(-74.145 -7.544)"/><path class="b" d="M75.249,7.544c.689.495-1.042,2.014-.245,2.574" transform="translate(-65.444 -7.544)"/><path class="b" d="M43.909,28.01H42.522a2.775,2.775,0,1,0,0,5.55h1.387" transform="translate(-39.747 -22.552)"/></g><g transform="translate(0 14.683)"><path class="b" d="M86.739,91.84A18.475,18.475,0,0,0,90.8,93.055l1.243-1.747c0-1.554-1.669-3.853-1.669-3.853" transform="translate(-67.177 -80.828)"/><path class="b" d="M48.752,73.084l2.638-9.737a17.311,17.311,0,0,0-10.037,0L43.9,73.084a17.608,17.608,0,0,1,4.853,0Z" transform="translate(-33.894 -62.604)"/><path class="b" d="M69.5,77.5a15.555,15.555,0,0,1,4.315,1.263l4.341-5.241a14.2,14.2,0,0,0-6.216-4.367" transform="translate(-54.532 -67.407)"/><path class="b" d="M18.682,91.84a18.469,18.469,0,0,1-4.055,1.215l-1.243-1.747c0-1.554,1.669-3.853,1.669-3.853" transform="translate(-13.383 -80.828)"/><path class="b" d="M26.7,77.5a15.573,15.573,0,0,0-4.319,1.264l-4.341-5.241a14.2,14.2,0,0,1,6.216-4.367" transform="translate(-16.802 -67.407)"/></g></g></svg>