<svg xmlns="http://www.w3.org/2000/svg" width="32" height="32" viewBox="0 0 32 32"><defs><style>.a,.b{fill:none;}.b{stroke:#092a5e;stroke-linecap:round;stroke-linejoin:round;stroke-width:1.5px;}</style></defs><rect class="a" width="32" height="32"/><g transform="translate(4 1.667)"><path class="b" d="M38,54.667c4.014,0,8-2.667,8-7.467V40H30v7.2C30,52,33.986,54.667,38,54.667Z" transform="translate(-26 -32)"/><path class="b" d="M50.667,15.333a1.667,1.667,0,0,1,0-2.667,1.666,1.666,0,0,0,0-2.666" transform="translate(-40.667 -10)"/><path class="b" d="M65.667,15.333a1.667,1.667,0,0,1,0-2.667,1.667,1.667,0,0,0,0-2.666" transform="translate(-51.667 -10)"/><path class="b" d="M90,45.333h1.333a2.667,2.667,0,0,0,0-5.333H90" transform="translate(-70 -32)"/><path class="b" d="M25,105H43.667" transform="translate(-22.333 -79.667)"/></g></svg>