<svg xmlns="http://www.w3.org/2000/svg" xmlns:xlink="http://www.w3.org/1999/xlink" width="32" height="32" viewBox="0 0 32 32"><defs><style>.a,.c{fill:none;}.b{clip-path:url(#a);}.c{stroke:#092a5e;stroke-linecap:round;stroke-linejoin:round;stroke-width:1.5px;}</style><clipPath id="a"><rect class="a" width="32" height="32"/></clipPath></defs><g class="b"><rect class="a" width="32" height="32"/><path class="c" d="M39,39s-.023-1.2,0-2.667-.339-1.969-2.731-3.567l-6.6-4.433c2.687-1.291,2.643-3.861,2.667-5.333V20.333A5.546,5.546,0,0,0,30.979,16.4,5.7,5.7,0,0,0,27,15a5.7,5.7,0,0,0-3.977,1.4,5.545,5.545,0,0,0-1.355,3.937V23c.023,1.472-.021,4.043,2.667,5.333l-6.6,4.433c-2.392,1.6-2.755,2.1-2.732,3.567S15,39,15,39Z" transform="translate(-11 -11)"/></g></svg>