<svg xmlns="http://www.w3.org/2000/svg" width="32" height="32" viewBox="0 0 32 32"><defs><style>.a,.b{fill:none;}.b{stroke:#092a5e;stroke-linecap:round;stroke-linejoin:round;stroke-width:1.5px;}</style></defs><rect class="a" width="32" height="32"/><g transform="translate(3.2 6.4)"><path class="b" d="M37.6,36.8H12V26.133A2.133,2.133,0,0,1,14.133,24H35.467A2.133,2.133,0,0,1,37.6,26.133Z" transform="translate(-12 -24)"/><path class="b" d="M28,60.267V58.133A2.133,2.133,0,0,1,30.133,56h12.8a2.133,2.133,0,0,1,2.133,2.133v2.133" transform="translate(-23.733 -47.467)"/><line class="b" x1="2.133" transform="translate(19.2 4.267)"/><line class="b" x1="2.133" transform="translate(13.867 4.267)"/><path class="b" d="M58.539,84a1.927,1.927,0,0,1,0,2.667,1.889,1.889,0,0,0,0,2.667" transform="translate(-45.733 -68)"/><path class="b" d="M78.539,84a1.927,1.927,0,0,1,0,2.667,1.889,1.889,0,0,0,0,2.667" transform="translate(-60.4 -68)"/><path class="b" d="M38.539,84a1.927,1.927,0,0,1,0,2.667,1.889,1.889,0,0,0,0,2.667" transform="translate(-31.067 -68)"/></g></svg>