<svg xmlns="http://www.w3.org/2000/svg" width="32" height="32" viewBox="0 0 32 32"><defs><style>.a,.b{fill:none;}.b{stroke:#092a5e;stroke-linecap:round;stroke-linejoin:round;stroke-width:1.5px;}</style></defs><rect class="a" width="32" height="32"/><g transform="translate(4.004 3.467)"><path class="b" d="M17.415,16.6a2.407,2.407,0,0,0-2.4,2.4V34.6a2.407,2.407,0,0,0,2.4,2.4h19.2a2.407,2.407,0,0,0,2.4-2.4V19a2.407,2.407,0,0,0-2.4-2.4h-4.8S30.974,13,29.678,13H24.344c-1.322,0-2.129,3.6-2.129,3.6Z" transform="translate(-15.015 -13)"/><circle class="b" cx="6.4" cy="6.4" r="6.4" transform="translate(5.596 7.2)"/><path class="b" d="M90.5,38.5v.267" transform="translate(-70.371 -31.7)"/></g></svg>