<svg xmlns="http://www.w3.org/2000/svg" width="32" height="32" viewBox="0 0 32 32"><defs><style>.a,.b{fill:none;}.b{stroke:#092a5e;stroke-linecap:round;stroke-linejoin:round;stroke-width:1.5px;}</style></defs><rect class="a" width="32" height="32"/><g transform="translate(4 4)"><path class="b" d="M0,0H20V5.333H0Z" transform="translate(2)"/><line class="b" x2="2.667" transform="translate(22 2.667)"/><line class="b" y2="5.333" transform="translate(24.667 2.667)"/><path class="b" d="M1.333,0H8V2.667H1.333A1.333,1.333,0,0,1,0,1.333H0A1.333,1.333,0,0,1,1.333,0Z" transform="translate(10.667 25.333) rotate(-90)"/><line class="b" x2="4" transform="translate(10 16)"/><line class="b" y1="5.333" transform="translate(12 10.667)"/><line class="b" y1="2.667" x2="12.667" transform="translate(12 8)"/><path class="b" d="M19,51.5a2,2,0,0,1-4,0c0-1.1,2-4,2-4S19,50.4,19,51.5Z" transform="translate(-15 -38.833)"/></g></svg>