<svg xmlns="http://www.w3.org/2000/svg" width="32" height="32" viewBox="0 0 32 32"><defs><style>.a,.b{fill:none;}.b{stroke:#092a5e;stroke-linecap:round;stroke-linejoin:round;stroke-width:1.5px;}</style></defs><rect class="a" width="32" height="32"/><g transform="translate(2.667 7.051)"><path class="b" d="M30,51.9l5.333,2.545h5.333L46,51.9" transform="translate(-24.667 -45.113)"/><path class="b" d="M50,29.111a2.667,2.667,0,1,1,2.667,2.667A2.667,2.667,0,0,1,50,29.111Z" transform="translate(-39.333 -26.444)"/><line class="b" y1="4.17" transform="translate(10.667 9.333)"/><line class="b" y2="4.17" transform="translate(16 9.333)"/><path class="b" d="M36.667,88.852a19.345,19.345,0,0,1-13.333,0,19.339,19.339,0,0,0-13.333,0" transform="translate(-10 -71.341)"/><path class="b" d="M37.269,81.771h5.947a2,2,0,0,0,2-2h0a2,2,0,0,0-2-2h-12.9a2,2,0,0,0-2,2h0a1.994,1.994,0,0,0,.13.71" transform="translate(-23.434 -64.084)"/></g></svg>