<svg xmlns="http://www.w3.org/2000/svg" width="32" height="32" viewBox="0 0 32 32"><defs><style>.a,.b{fill:none;}.b{stroke:#092a5e;stroke-linecap:round;stroke-linejoin:round;stroke-width:1.5px;}</style></defs><rect class="a" width="32" height="32"/><g transform="translate(2.799 9.464)"><path class="b" d="M88.4,66.539a19.607,19.607,0,0,0,4.309,1.29l1.32-1.855c0-1.65-1.772-4.092-1.772-4.092" transform="translate(-67.622 -54.844)"/><path class="b" d="M48.055,46.62l2.8-10.34a18.382,18.382,0,0,0-10.659,0l2.7,10.34a18.7,18.7,0,0,1,5.154,0Z" transform="translate(-32.277 -35.49)"/><path class="b" d="M70.084,51.307a16.544,16.544,0,0,1,4.582,1.341l4.61-5.565a15.078,15.078,0,0,0-6.6-4.638" transform="translate(-54.194 -40.591)"/><path class="b" d="M16.122,66.539a19.605,19.605,0,0,1-4.307,1.29l-1.32-1.855c0-1.65,1.772-4.092,1.772-4.092" transform="translate(-10.495 -54.844)"/><path class="b" d="M24.642,51.307a16.543,16.543,0,0,0-4.586,1.342l-4.609-5.565a15.078,15.078,0,0,1,6.6-4.638" transform="translate(-14.126 -40.591)"/></g></svg>