<svg xmlns="http://www.w3.org/2000/svg" xmlns:xlink="http://www.w3.org/1999/xlink" width="32" height="32" viewBox="0 0 32 32"><defs><style>.a,.c{fill:none;}.b{clip-path:url(#a);}.c{stroke:#092a5e;stroke-linecap:round;stroke-linejoin:round;stroke-width:1.5px;}</style><clipPath id="a"><rect class="a" width="32" height="32"/></clipPath></defs><g class="b"><rect class="a" width="32" height="32"/><g transform="translate(2.667 4)"><path class="c" d="M25,24.333a9.333,9.333,0,1,1,9.333,9.333A9.334,9.334,0,0,1,25,24.333Z" transform="translate(-21 -15)"/><path class="c" d="M40,35.333a5.333,5.333,0,1,1,5.333,5.333A5.334,5.334,0,0,1,40,35.333Z" transform="translate(-32 -26)"/><path class="c" d="M31.333,70l5.333,5.333H31.333v5.333L24.667,74H22l-6.667,6.667V75.333H10L15.333,70" transform="translate(-10 -55.333)"/></g></g></svg>