<svg xmlns="http://www.w3.org/2000/svg" width="32" height="32" viewBox="0 0 32 32"><defs><style>.a,.b{fill:none;}.b{stroke:#092a5e;stroke-linecap:round;stroke-linejoin:round;stroke-width:1.5px;}</style></defs><rect class="a" width="32" height="32"/><g transform="translate(3.5 2)"><line class="b" y1="2.72" x2="4.715" transform="translate(16.529 8.956)"/><line class="b" x2="4.768" y2="2.757" transform="translate(3.756 8.944)"/><line class="b" x2="4.843" y2="3.282" transform="translate(16.485 16.134)"/><line class="b" y1="3.151" x2="4.986" transform="translate(3.617 16.171)"/><line class="b" y1="5.577" x2="0.033" transform="translate(12.5 18.423)"/><line class="b" y2="5.311" transform="translate(12.5 4)"/><circle class="b" cx="2" cy="2" r="2" transform="translate(21 6)"/><circle class="b" cx="2" cy="2" r="2" transform="translate(10.5)"/><circle class="b" cx="2" cy="2" r="2" transform="translate(10.5 24)"/><circle class="b" cx="2" cy="2" r="2" transform="translate(0 6)"/><circle class="b" cx="2" cy="2" r="2" transform="translate(21 18.5)"/><circle class="b" cx="2" cy="2" r="2" transform="translate(0 18.5)"/><circle class="b" cx="4.556" cy="4.556" r="4.556" transform="translate(7.977 9.311)"/></g></svg>