<svg xmlns="http://www.w3.org/2000/svg" width="32" height="32" viewBox="0 0 32 32"><defs><style>.a,.b{fill:none;}.b{stroke:#092a5e;stroke-linecap:round;stroke-linejoin:round;stroke-width:1.5px;}</style></defs><rect class="a" width="32" height="32"/><g transform="translate(4 4.667)"><path class="b" d="M9.732,20.4l1.275-7.487a6.681,6.681,0,0,1-2.9-2.1L0,10V3.333l8.111-.811a6.667,6.667,0,1,1,7.71,10.331l-2.373,8.389Z" transform="translate(4)"/><line class="b" y2="6.667" transform="translate(7.333 3.333)"/><line class="b" x1="1.886" y2="1.886" transform="translate(17.219 6.667)"/><line class="b" x1="1.886" y2="1.886" transform="translate(15.333 4.781)"/><line class="b" x1="1.333" transform="translate(0 4.153)"/><line class="b" x1="1.333" transform="translate(0 9.487)"/><line class="b" x1="1.333" transform="translate(0 6.82)"/><path class="b" d="M71.936,96.4s-2.474,4.793,5.8,3.523" transform="translate(-56.499 -75.364)"/></g></svg>