<svg xmlns="http://www.w3.org/2000/svg" width="32" height="32" viewBox="0 0 32 32"><defs><style>.a,.b{fill:none;}.b{stroke:#092a5e;stroke-linecap:round;stroke-linejoin:round;stroke-width:1.5px;}</style></defs><rect class="a" width="32" height="32"/><g transform="translate(4 5.333)"><path class="b" d="M22.088,22.6A3.487,3.487,0,0,1,25.333,20H36a3.488,3.488,0,0,1,3.245,2.6l1.51,6.794a12.49,12.49,0,0,1,.578,3.4v2.667a2.675,2.675,0,0,1-2.667,2.667h-16A2.675,2.675,0,0,1,20,35.467V32.8a12.491,12.491,0,0,1,.579-3.4Z" transform="translate(-18.667 -20)"/><path class="b" d="M28,88h1.067v4.533H28Zm17.067,0v4.533H44V88Z" transform="translate(-24.533 -69.867)"/><path class="b" d="M15,45l.8,1.333H38.2L39,45" transform="translate(-15 -38.333)"/><path class="b" d="M35,66.067a1.067,1.067,0,1,1,1.067,1.067A1.066,1.066,0,0,1,35,66.067Zm11.2,0a1.067,1.067,0,1,1,1.067,1.067A1.066,1.066,0,0,1,46.2,66.067Z" transform="translate(-29.667 -53)"/></g></svg>