<svg xmlns="http://www.w3.org/2000/svg" width="32" height="32" viewBox="0 0 32 32"><defs><style>.a,.b{fill:none;}.b{stroke:#092a5e;stroke-linecap:round;stroke-linejoin:round;stroke-width:1.5px;}</style></defs><rect class="a" width="32" height="32"/><g transform="translate(8.273 4)"><path class="b" d="M2.667,0H5.333A2.667,2.667,0,0,1,8,2.667V4H0V2.667A2.667,2.667,0,0,1,2.667,0Z" transform="translate(1.727 5.333)"/><line class="b" y1="20" transform="translate(16.394 5.333)"/><path class="b" d="M52.5,20.333a5.333,5.333,0,1,1,10.667,0" transform="translate(-46.773 -15)"/><line class="b" x1="0.254" y2="0.698" transform="translate(3.2 12.584)"/><line class="b" x1="0.254" y2="0.698" transform="translate(1.6 16.984)"/><line class="b" x1="0.254" y2="0.698" transform="translate(0 21.384)"/><line class="b" x2="0.254" y2="0.698" transform="translate(8 12.584)"/><line class="b" x2="0.254" y2="0.698" transform="translate(9.6 16.984)"/><line class="b" x2="0.254" y2="0.698" transform="translate(11.2 21.384)"/><line class="b" y2="0.698" transform="translate(5.727 15.251)"/><line class="b" y2="0.698" transform="translate(5.727 19.651)"/><line class="b" y2="0.698" transform="translate(5.727 24.051)"/></g></svg>