<svg xmlns="http://www.w3.org/2000/svg" width="32" height="32" viewBox="0 0 32 32"><defs><style>.a,.b{fill:none;}.b{stroke:#092a5e;stroke-linecap:round;stroke-linejoin:round;stroke-width:1.5px;}</style></defs><rect class="a" width="32" height="32"/><g transform="translate(3.2 5.067)"><path class="b" d="M93.531,45.433a2.762,2.762,0,0,1-5.5,0c0-1.381,1.231-4.433,2.75-4.433S93.531,44.053,93.531,45.433Z" transform="translate(-67.756 -35.133)"/><path class="b" d="M70.531,23.433a2.762,2.762,0,0,1-5.5,0c0-1.381,1.231-4.433,2.75-4.433S70.531,22.053,70.531,23.433Z" transform="translate(-50.889 -19)"/><path class="b" d="M40.531,23.433a2.762,2.762,0,0,1-5.5,0c0-1.381,1.231-4.433,2.75-4.433S40.531,22.053,40.531,23.433Z" transform="translate(-28.889 -19)"/><path class="b" d="M17.5,45.433a2.634,2.634,0,0,1-2.75,2.5,2.634,2.634,0,0,1-2.75-2.5C12,44.053,13.231,41,14.75,41S17.5,44.053,17.5,45.433Z" transform="translate(-12 -35.133)"/><path class="b" d="M46.344,60.625a3.161,3.161,0,0,1-1.5,3c-2,1.5-4.5.167-6.5.167s-4.5,1.333-6.5-.167a4.135,4.135,0,0,1-1.5-3c0-3,5-9.5,8-9.5S46.344,57.625,46.344,60.625Z" transform="translate(-25.452 -42.558)"/></g></svg>