<svg xmlns="http://www.w3.org/2000/svg" width="32" height="32" viewBox="0 0 32 32"><defs><style>.a,.b{fill:none;}.b{stroke:#202f58;stroke-linecap:round;stroke-linejoin:round;stroke-width:1.5px;}</style></defs><rect class="a" width="32" height="32"/><g transform="translate(4 5.333)"><path class="b" d="M75.757,32.683c0,1.475-2.442,2.671-5.453,2.671s-5.453-1.2-5.453-2.671V30.016c0,1.475,2.442,2.671,5.453,2.671s5.453-1.2,5.453-2.671Z" transform="translate(-51.557 -27.345)"/><path class="b" d="M70.3,42.694c-3.012,0-5.453-1.2-5.453-2.671V42.69c0,1.475,2.442,2.671,5.453,2.671s5.453-1.2,5.453-2.671V40.023C75.757,41.5,73.316,42.694,70.3,42.694Z" transform="translate(-51.557 -34.684)"/><path class="b" d="M70.3,52.7c-3.012,0-5.453-1.2-5.453-2.671V52.7a1.352,1.352,0,0,0,.019.189A5.305,5.305,0,0,1,67.947,55.1a10.335,10.335,0,0,0,2.357.265c3.012,0,5.453-1.2,5.453-2.671V50.031C75.757,51.506,73.316,52.7,70.3,52.7Z" transform="translate(-51.557 -42.023)"/><path class="b" d="M64.851,60.039v.182l.019.005A1.366,1.366,0,0,1,64.851,60.039Z" transform="translate(-51.557 -49.362)"/><path class="b" d="M78.823,62.71a10.335,10.335,0,0,1-2.355-.265l0,0a5.272,5.272,0,0,1,.86,2.824,10.834,10.834,0,0,0,1.493.1c3.012,0,5.453-1.2,5.453-2.671V60.039C84.277,61.514,81.835,62.71,78.823,62.71Z" transform="translate(-60.077 -49.362)"/><path class="b" d="M79.492,72.718a10.826,10.826,0,0,1-1.493-.1c0,.025,0,.049,0,.073a5.271,5.271,0,0,1-.622,2.49,10.522,10.522,0,0,0,2.112.208c3.012,0,5.453-1.2,5.453-2.671V70.047C84.945,71.522,82.5,72.718,79.492,72.718Z" transform="translate(-60.745 -56.701)"/><path class="b" d="M75.757,22.671c0,1.475-2.442,2.671-5.453,2.671s-5.453-1.2-5.453-2.671S67.293,20,70.3,20,75.757,21.2,75.757,22.671Z" transform="translate(-51.557 -20)"/><path class="b" d="M25.859,52.267a1.353,1.353,0,0,0,.047-.334V49.266c0,1.475-2.442,2.671-5.453,2.671S15,50.741,15,49.266v2.667c0,1.475,2.442,2.671,5.453,2.671a10.456,10.456,0,0,0,2.2-.227A5.3,5.3,0,0,1,25.859,52.267Z" transform="translate(-15 -41.462)"/><path class="b" d="M55.771,59.273a1.348,1.348,0,0,1-.047.333l.047-.011Z" transform="translate(-44.864 -48.8)"/><path class="b" d="M20.453,61.944c-3.012,0-5.453-1.2-5.453-2.671V61.94c0,1.475,2.441,2.671,5.453,2.671a10.931,10.931,0,0,0,1.223-.07,5.267,5.267,0,0,1,.973-2.824A10.454,10.454,0,0,1,20.453,61.944Z" transform="translate(-15 -48.8)"/><path class="b" d="M21.676,71.883a10.931,10.931,0,0,1-1.223.07c-3.012,0-5.453-1.2-5.453-2.671v2.666c0,1.475,2.441,2.671,5.453,2.671a10.694,10.694,0,0,0,1.764-.146,5.268,5.268,0,0,1-.554-2.348C21.663,72.044,21.672,71.964,21.676,71.883Z" transform="translate(-15 -56.14)"/><path class="b" d="M25.906,41.921c0-1.475-2.442-2.671-5.453-2.671S15,40.446,15,41.921s2.441,2.671,5.453,2.671S25.906,43.4,25.906,41.921Z" transform="translate(-15 -34.117)"/><path class="b" d="M50.582,65.381a5.295,5.295,0,1,1-.863-2.9A5.3,5.3,0,0,1,50.582,65.381Z" transform="translate(-33.325 -49.395)"/></g></svg>