<svg xmlns="http://www.w3.org/2000/svg" width="32" height="32" viewBox="0 0 32 32"><defs><style>.a,.b,.c{fill:none;}.b,.c{stroke:#092a5e;stroke-linecap:round;stroke-width:1.5px;}.b{stroke-linejoin:round;}</style></defs><rect class="a" width="32" height="32"/><g transform="translate(6.667 6.683)"><line class="b" y2="4" transform="translate(18.667 15.183)"/><line class="b" y1="4" transform="translate(0 15.183)"/><path class="c" d="M2.268,0H16.4a2.268,2.268,0,0,1,2.268,2.268V5.333H0V2.268A2.268,2.268,0,0,1,2.268,0Z" transform="translate(0 9.85)"/><path class="b" d="M47.635,36.333V29.268A2.268,2.268,0,0,0,45.367,27h-9.6A2.268,2.268,0,0,0,33.5,29.268v7.066" transform="translate(-31.236 -26.483)"/><path class="b" d="M54,51V49.268A2.268,2.268,0,0,0,51.734,47H47.272A2.268,2.268,0,0,0,45,49.268V51" transform="translate(-40.171 -41.15)"/><path class="b" d="M30.4,25.063" transform="translate(-28.963 -25.063)"/><path class="b" d="M30.4,62" transform="translate(-28.963 -52.15)"/></g></svg>