<svg xmlns="http://www.w3.org/2000/svg" width="32" height="32" viewBox="0 0 32 32"><defs><style>.a,.b{fill:none;}.b{stroke:#092a5e;stroke-linecap:round;stroke-linejoin:round;stroke-width:1.5px;}</style></defs><rect class="a" width="32" height="32"/><g transform="translate(5.067 5.867)"><path class="b" d="M29.894,56.384a84.123,84.123,0,0,1-9.533-.014l0,.014,2.2,6.006a1.464,1.464,0,0,0,1.374.958H37.254A1.464,1.464,0,0,0,38.69,62.17l2.293-8.314a42.8,42.8,0,0,0-4.858.7C33.379,55.088,30.989,56.274,29.894,56.384Z" transform="translate(-19.998 -45.361)"/><path class="b" d="M19,56.247a89.8,89.8,0,0,0,9.9.033c1.1-.11,3.486-1.3,6.23-1.833a36.693,36.693,0,0,1,5.5-.733" transform="translate(-19 -45.257)"/><path class="b" d="M36.867,89.448v2.2" transform="translate(-32.102 -71.462)"/><path class="b" d="M80.847,89.448v2.2" transform="translate(-64.354 -71.462)"/><path class="b" d="M75.7,24.932v-.1A2.83,2.83,0,0,1,78.534,22h.2a2.83,2.83,0,0,1,2.83,2.83v5.676" transform="translate(-60.583 -22)"/><path class="b" d="M70.162,33.032h2.955" transform="translate(-56.519 -30.09)"/></g></svg>