<svg xmlns="http://www.w3.org/2000/svg" width="32" height="32" viewBox="0 0 32 32"><defs><style>.a,.b{fill:none;}.b{stroke:#092a5e;stroke-linecap:round;stroke-linejoin:round;stroke-width:1.5px;}</style></defs><rect class="a" width="32" height="32"/><g transform="translate(4 4)"><path class="b" d="M57.974,76.092v.242" transform="translate(-46.514 -59.801)"/><path class="b" d="M52.213,39.936V38.483q-.08-.727.339-.727a2.83,2.83,0,0,0,2.785-3.028A3.028,3.028,0,0,0,52.31,31.7a2.948,2.948,0,0,0-2.3.727" transform="translate(-40.673 -27.247)"/><path class="b" d="M33.909,34.385A10.359,10.359,0,0,0,39,25.667C39,19.775,33.626,15,27,15S15,19.775,15,25.667s5.374,10.667,12,10.667a13.613,13.613,0,0,0,1.751-.114A9.994,9.994,0,0,0,39,38.429,10.031,10.031,0,0,1,33.909,34.385Z" transform="translate(-15 -15)"/></g></svg>