<svg xmlns="http://www.w3.org/2000/svg" width="32" height="32" viewBox="0 0 32 32"><defs><style>.a,.b{fill:none;}.b{stroke:#092a5e;stroke-linecap:round;stroke-linejoin:round;stroke-width:1.5px;}</style></defs><rect class="a" width="32" height="32"/><g transform="translate(4 4)"><path class="b" d="M15.976,31.736a12,12,0,1,1,15.761,6.293A12,12,0,0,1,15.976,31.736Z" transform="translate(-15 -15)"/><path class="b" d="M79,19.771h3.725c.1,0,.046-.207.046-.284V18.433q0-1.128,0-2.257V16" transform="translate(-61.933 -15.733)"/><path class="b" d="M30.784,90H27.059c-.1,0-.046.207-.046.284v1.054q0,1.128,0,2.257v.177" transform="translate(-23.8 -70)"/><path class="b" d="M50,49.635a2.667,2.667,0,0,1,5.333,0c0,2.7-2.667,4.831-2.667,4.831S50,52.333,50,49.635Z" transform="translate(-40.667 -38.467)"/><path class="b" d="M50,49.667a2.667,2.667,0,1,1,2.667,2.667A2.666,2.666,0,0,1,50,49.667" transform="translate(-40.667 -38.467)"/></g></svg>