<svg xmlns="http://www.w3.org/2000/svg" width="32" height="32" viewBox="0 0 32 32"><defs><style>.a,.b{fill:none;}.b{stroke:#092a5e;stroke-linecap:round;stroke-linejoin:round;stroke-width:1.5px;}</style></defs><rect class="a" width="32" height="32"/><g transform="translate(3.918 5.68)"><path class="b" d="M35.466,21.3H18.08a3.3,3.3,0,0,0-3.389,3.276v8.035a3.5,3.5,0,0,0,3.389,3.5h7.874L32.7,43.008V36.116h2.762a3.4,3.4,0,0,0,3.389-3.389V24.691A3.4,3.4,0,0,0,35.466,21.3Z" transform="translate(-14.691 -21.302)"/><path class="b" d="M36,45.933A1.067,1.067,0,1,1,37.067,47,1.066,1.066,0,0,1,36,45.933Z" transform="translate(-30.318 -38.582)"/><path class="b" d="M56,45.933A1.067,1.067,0,1,1,57.067,47,1.066,1.066,0,0,1,56,45.933Z" transform="translate(-44.984 -38.582)"/><path class="b" d="M76,45.933A1.067,1.067,0,1,1,77.067,47,1.066,1.066,0,0,1,76,45.933Z" transform="translate(-59.651 -38.582)"/></g></svg>