<svg xmlns="http://www.w3.org/2000/svg" width="32" height="32" viewBox="0 0 32 32"><defs><style>.a,.b{fill:none;}.b{stroke:#092a5e;stroke-linecap:round;stroke-linejoin:round;stroke-width:1.5px;}</style></defs><rect class="a" width="32" height="32"/><g transform="translate(6.667 4)"><path class="b" d="M40,65l5.333,10.735L50.667,65" transform="translate(-36 -51.667)"/><path class="b" d="M29.692,17.7a5.335,5.335,0,0,1,9.283,0,5.334,5.334,0,1,1-4.642,8.823A5.334,5.334,0,1,1,29.692,17.7Z" transform="translate(-25 -15)"/><path class="b" d="M60,48.528h0A5.313,5.313,0,0,0,61.333,45" transform="translate(-50.667 -37)"/><path class="b" d="M60,26.806A5.321,5.321,0,0,1,64,25" transform="translate(-50.667 -22.333)"/></g></svg>