<svg xmlns="http://www.w3.org/2000/svg" width="32" height="32" viewBox="0 0 32 32"><defs><style>.a,.b,.c{fill:none;}.b,.c{stroke:#092a5e;stroke-linecap:round;stroke-width:1.5px;}.b{stroke-linejoin:round;}</style></defs><rect class="a" width="32" height="32"/><g transform="translate(3.2 4)"><line class="b" y2="16" transform="translate(24.8 6.667)"/><line class="b" y2="10.667" transform="translate(12.8 9.333)"/><line class="b" y2="10.667" transform="translate(4.8 9.333)"/><line class="b" y2="10.667" transform="translate(8.8 9.333)"/><line class="b" y2="10.667" transform="translate(16.8 9.333)"/><line class="b" y2="10.667" transform="translate(20.8 9.333)"/><line class="b" y1="16" transform="translate(0.8 6.667)"/><line class="b" x2="24" transform="translate(0.8 9.333)"/><path class="c" d="M4,0H20a4,4,0,0,1,4,4H0A4,4,0,0,1,4,0Z" transform="translate(0.8 16)"/><line class="b" y1="1.361" x2="0.989" transform="translate(14.478 1.682)"/><line class="b" x1="0.989" y1="1.361" transform="translate(15.467 1.682)"/><line class="b" x2="1.6" y2="0.52" transform="translate(13.867 1.162)"/><line class="b" x1="1.6" y2="0.52" transform="translate(15.467 1.162)"/><line class="b" y2="1.682" transform="translate(15.467)"/><line class="b" y1="1.361" x2="0.989" transform="translate(9.144 4.349)"/><line class="b" x1="0.989" y1="1.361" transform="translate(10.133 4.349)"/><line class="b" x2="1.6" y2="0.52" transform="translate(8.533 3.829)"/><line class="b" x1="1.6" y2="0.52" transform="translate(10.133 3.829)"/><line class="b" y2="1.682" transform="translate(10.133 2.667)"/><ellipse class="b" cx="0.8" cy="0.745" rx="0.8" ry="0.745" transform="translate(24 4.533)"/><ellipse class="b" cx="0.8" cy="0.745" rx="0.8" ry="0.745" transform="translate(0 4.533)"/></g></svg>