<svg xmlns="http://www.w3.org/2000/svg" width="32" height="32" viewBox="0 0 32 32"><defs><style>.a,.b{fill:none;}.b{stroke:#092a5e;stroke-linecap:round;stroke-linejoin:round;stroke-width:1.5px;}</style></defs><rect class="a" width="32" height="32"/><g transform="translate(5.333 4)"><path class="b" d="M41.333,39V23L30.667,15,20,23V39" transform="translate(-20 -15)"/><line class="b" x2="1.333" transform="translate(6.067 24)"/><line class="b" x2="1.333" transform="translate(10.067 24)"/><line class="b" x2="1.333" transform="translate(13.933 24)"/><path class="b" d="M58.533,55a1.916,1.916,0,0,1,0,2.667,1.9,1.9,0,0,0,0,2.667" transform="translate(-47.867 -44.333)"/><path class="b" d="M73.533,55a1.916,1.916,0,0,1,0,2.667,1.9,1.9,0,0,0,0,2.667" transform="translate(-58.867 -44.333)"/><path class="b" d="M43.533,55a1.916,1.916,0,0,1,0,2.667,1.9,1.9,0,0,0,0,2.667" transform="translate(-36.867 -44.333)"/><line class="b" x2="1.333" transform="translate(7.867 21.333)"/><line class="b" x2="1.333" transform="translate(11.867 21.333)"/></g></svg>