<svg xmlns="http://www.w3.org/2000/svg" width="32" height="32" viewBox="0 0 32 32"><defs><style>.a,.b{fill:none;}.b{stroke:#092a5e;stroke-linecap:round;stroke-linejoin:round;stroke-width:1.5px;}</style></defs><rect class="a" width="32" height="32"/><g transform="translate(3.352 3.576)"><path class="b" d="M62.63,34.935h9.286s-.024-5.614,0-6.64S71.677,26.934,70,25.811L65.413,22.73c1.865-.907,1.841-2.7,1.865-3.726V17.14a3.83,3.83,0,0,0-.957-2.747,4.419,4.419,0,0,0-5.548,0,3.937,3.937,0,0,0-.957,2.747V19c.024,1.027-.024,2.818,1.865,3.726L59,24.526" transform="translate(-46.621 -13.411)"/><path class="b" d="M22.178,32.869c2.43-2.2,1.184-7.882-2.462-7.675-3.8-.217-5.015,6.025-2.1,7.954-5.409,2.861-4.962,4.657-5.045,10.423h5.182" transform="translate(-12.569 -22.048)"/><path class="b" d="M42.437,67.693c.063-3.893,1.681-6.575-3.239-8.531,5.489-7.5-9.316-7.464-3.825,0-4.867,2.047-3.329,4.2-3.239,8.531Z" transform="translate(-26.697 -42.846)"/></g></svg>