<svg xmlns="http://www.w3.org/2000/svg" width="32" height="32" viewBox="0 0 32 32"><defs><style>.a,.b{fill:none;}.b{stroke:#092a5e;stroke-linecap:round;stroke-linejoin:round;stroke-width:1.5px;}</style></defs><rect class="a" width="32" height="32"/><g transform="translate(3.333 4)"><path class="b" d="M42.5,17.5H55.833A2.667,2.667,0,0,1,58.5,20.167v20h-16" transform="translate(-34.5 -16.833)"/><path class="b" d="M49.492,41.622s-.039,1.7-.156,2.346a16.608,16.608,0,0,1-.861,2.649" transform="translate(-38.882 -34.523)"/><path class="b" d="M58.729,46.616a16.607,16.607,0,0,1-.861-2.649c-.118-.65-.156-2.346-.156-2.346" transform="translate(-45.655 -34.523)"/><path class="b" d="M53.222,37.537V36.052H51.189v1.486" transform="translate(-40.872 -30.438)"/><path class="b" d="M45.927,60.35a14.323,14.323,0,0,0-.9,2.922,39.66,39.66,0,0,0,.293,4.984h4.691a39.66,39.66,0,0,0,.293-4.984,14.323,14.323,0,0,0-.9-2.922" transform="translate(-36.333 -48.257)"/><path class="b" d="M72.554,35.575s-.043,1.908-.176,2.639a18.7,18.7,0,0,1-.968,2.979" transform="translate(-55.701 -30.088)"/><path class="b" d="M82.945,41.193a18.7,18.7,0,0,1-.968-2.979c-.133-.731-.176-2.639-.176-2.639" transform="translate(-63.321 -30.088)"/><path class="b" d="M76.749,30.979V29.308H74.462v1.671" transform="translate(-57.939 -25.493)"/><path class="b" d="M68.543,56.644a16.089,16.089,0,0,0-1.011,3.287,44.65,44.65,0,0,0,.33,5.607h5.277a44.65,44.65,0,0,0,.33-5.607,16.088,16.088,0,0,0-1.011-3.287" transform="translate(-52.834 -45.539)"/><path class="b" d="M2.667,0h0V24h0A2.667,2.667,0,0,1,0,21.333V2.667A2.667,2.667,0,0,1,2.667,0Z" transform="translate(2.667 0)"/><line class="b" y2="5.333" transform="translate(0 4.333)"/></g></svg>