<svg xmlns="http://www.w3.org/2000/svg" width="32" height="32" viewBox="0 0 32 32"><defs><style>.a,.b{fill:none;}.b{stroke:#092a5e;stroke-linecap:round;stroke-linejoin:round;stroke-width:1.5px;}</style></defs><rect class="a" width="32" height="32"/><g transform="translate(4 12.533)"><path class="b" d="M58.733,47H62.84a2.56,2.56,0,0,1,2.56,2.56v2.88A2.557,2.557,0,0,1,63.48,55H54.2c-2.054,0-3.2-1.146-3.2-2.56V50.2" transform="translate(-41.4 -47)"/><path class="b" d="M21.667,55H17.56A2.56,2.56,0,0,1,15,52.44V49.56A2.56,2.56,0,0,1,17.56,47h9.28a2.56,2.56,0,0,1,2.56,2.56V51.8" transform="translate(-15 -47)"/></g></svg>