<svg xmlns="http://www.w3.org/2000/svg" width="32" height="32" viewBox="0 0 32 32"><defs><style>.a,.b{fill:none;}.b{stroke:#092a5e;stroke-linecap:round;stroke-linejoin:round;stroke-width:1.5px;}</style></defs><rect class="a" width="32" height="32"/><g transform="translate(5.316 4)"><line class="b" y1="16" transform="translate(17.367 8)"/><path class="b" d="M30.063,39h16a2.667,2.667,0,0,0,2.667-2.667V17.667A2.667,2.667,0,0,0,46.063,15h-16Z" transform="translate(-27.363 -15)"/><path class="b" d="M19.937,77H25.27" transform="translate(-19.937 -60.467)"/><path class="b" d="M19.937,94H25.27" transform="translate(-19.937 -72.933)"/><path class="b" d="M19.937,43H25.27" transform="translate(-19.937 -35.533)"/><path class="b" d="M85.063,45h4" transform="translate(-67.696 -37)"/><path class="b" d="M85.063,75h4" transform="translate(-67.696 -59)"/><path class="b" d="M19.937,60H25.27" transform="translate(-19.937 -48)"/><path class="b" d="M19.937,26H25.27" transform="translate(-19.937 -23.067)"/></g></svg>