<svg xmlns="http://www.w3.org/2000/svg" width="32" height="32" viewBox="0 0 32 32"><defs><style>.a,.b{fill:none;}.b{stroke:#092a5e;stroke-linecap:round;stroke-linejoin:round;stroke-width:1.5px;}</style></defs><rect class="a" width="32" height="32"/><g transform="translate(1.844 8.279)"><path class="b" d="M84.773,55.5a5.148,5.148,0,1,1-5.148-5.148A5.148,5.148,0,0,1,84.773,55.5Z" transform="translate(-56.461 -45.2)"/><path class="b" d="M17.21,55.5a5.148,5.148,0,1,1-5.148-5.148A5.148,5.148,0,0,1,17.21,55.5Z" transform="translate(-6.915 -45.2)"/><path class="b" d="M31.044,31.044h2.574l5.148,10.3" transform="translate(-24.61 -31.044)"/><path class="b" d="M83.164,41.34,79.3,33.1V31.044h1.287" transform="translate(-60 -31.044)"/><path class="b" d="M40.375,38.766,35.24,47H26.219l4.656-8.236Z" transform="translate(-21.071 -36.707)"/></g></svg>