<svg xmlns="http://www.w3.org/2000/svg" xmlns:xlink="http://www.w3.org/1999/xlink" width="32" height="32" viewBox="0 0 32 32"><defs><style>.a,.c{fill:none;}.b{clip-path:url(#a);}.c{stroke:#092a5e;stroke-linecap:round;stroke-linejoin:round;stroke-width:1.5px;}</style><clipPath id="a"><rect class="a" width="32" height="32"/></clipPath></defs><g class="b"><rect class="a" width="32" height="32"/><g transform="translate(4 4)"><path class="c" d="M31.3,48.623c-1.69,1.153-1.077-3.1-.39-4.3.854-.889,8.328-1.941.39,4.3" transform="translate(-26.156 -36.009)"/><path class="c" d="M51.367,46.909c-2.691.441-3.135-2.762-4.07.121-.267-.454-2.425-2.134-4-.987-1.069.637-.706,2.225.113,3.858.209,1,.226,2.188-3.083.694-2-.4-4.4,2.191-3.091,3.619a6.57,6.57,0,0,0,1.9,1.258c1.623.6,1.782,2.646-1.615,2.376-2.057-.129-2.371-.4-4.959.681" transform="translate(-27.878 -37.476)"/><path class="c" d="M37.276,18.125c1.37,3.579,4.216.905,5.334,1.1-.895,2.181,1.063,1.286,1.454,1.09,3.132-1.51,1.566-2.237,2.517-3.411" transform="translate(-31.336 -16.397)"/><path class="c" d="M19.555,36.4A11.993,11.993,0,1,1,27,39,11.949,11.949,0,0,1,19.555,36.4Z" transform="translate(-15 -15)"/></g></g></svg>