<svg xmlns="http://www.w3.org/2000/svg" width="32" height="32" viewBox="0 0 32 32"><defs><style>.a,.b{fill:none;}.b{stroke:#092a5e;stroke-linecap:round;stroke-linejoin:round;stroke-width:1.5px;}</style></defs><rect class="a" width="32" height="32"/><g transform="translate(4.722 3.319)"><path class="b" d="M30.377,12.447c-6.012,0-10.01,4.247-10.01,8.706l-2.66,6.341h2.66L20.316,31.4a1.974,1.974,0,0,0,1.966,2.153h2.066V37.78H36.5V30.312c3.387-2.838,3.958-4.529,3.958-8.715C40.459,17,36.2,12.447,30.377,12.447Z" transform="translate(-17.707 -12.447)"/><path class="b" d="M57.119,31.849A1.819,1.819,0,0,0,54.08,30.5a3.036,3.036,0,0,0-5.817-1.074,2.124,2.124,0,0,0,.051,4.248h.253c0,.049-.007.1-.007.149A1.585,1.585,0,0,0,51.208,35,2.645,2.645,0,1,0,56.1,33.484,1.82,1.82,0,0,0,57.119,31.849Z" transform="translate(-38.594 -23.558)"/></g></svg>