<svg xmlns="http://www.w3.org/2000/svg" width="32" height="32" viewBox="0 0 32 32"><defs><style>.a,.b{fill:none;}.b{stroke:#092a5e;stroke-linecap:round;stroke-linejoin:round;stroke-width:1.5px;}</style></defs><rect class="a" width="32" height="32"/><g transform="translate(3.2 7.867)"><path class="b" d="M91.833,46.3a2.156,2.156,0,1,1,3.293,1.813l-.061.036,0,5.751H91.833" transform="translate(-70.544 -40.257)"/><line class="b" x1="16.977" transform="translate(4.312 9.645)"/><line class="b" y1="14.988" transform="translate(4.312 1.21)"/><line class="b" x2="16.977" transform="translate(4.312 13.645)"/><path class="b" d="M68.49,31.131a10.9,10.9,0,0,0-4.4-1.072A7.382,7.382,0,0,0,60,31.12" transform="translate(-47.2 -29.91)"/><path class="b" d="M60,42.5V34.08" transform="translate(-47.2 -32.859)"/><path class="b" d="M36.656,30.721A6.354,6.354,0,0,0,32.567,29.5a8.12,8.12,0,0,0-4.4,1.21" transform="translate(-23.856 -29.5)"/><path class="b" d="M91.833,34.08V49.125" transform="translate(-70.544 -32.859)"/><path class="b" d="M16.31,53.9H13.077l0-5.751-.061-.036A2.141,2.141,0,1,1,16.31,46.3" transform="translate(-11.999 -40.257)"/></g></svg>