<svg xmlns="http://www.w3.org/2000/svg" width="32" height="32" viewBox="0 0 32 32"><defs><style>.a,.b,.c{fill:none;}.b,.c{stroke:#092a5e;stroke-linecap:round;stroke-width:1.5px;}.c{stroke-linejoin:round;}</style></defs><rect class="a" width="32" height="32"/><g transform="translate(-2)"><path class="b" d="M2.133,0H21.867A2.133,2.133,0,0,1,24,2.133V21.867A2.133,2.133,0,0,1,21.867,24H2.133A2.133,2.133,0,0,1,0,21.867V2.133A2.133,2.133,0,0,1,2.133,0Z" transform="translate(6.267 4)"/><path class="c" d="M50,35V48.333" transform="translate(-34.667 -25.667)"/><path class="c" d="M50,41.667h4.711A2.968,2.968,0,0,0,58,38.467,3.176,3.176,0,0,0,54.711,35H50" transform="translate(-34.667 -25.667)"/></g></svg>