<svg xmlns="http://www.w3.org/2000/svg" width="32" height="32" viewBox="0 0 32 32"><defs><style>.a,.b{fill:none;}.b{stroke:#092a5e;stroke-linecap:round;stroke-linejoin:round;stroke-width:1.5px;}</style></defs><rect class="a" width="32" height="32"/><g transform="translate(4 4)"><path class="b" d="M33.909,34.385A10.359,10.359,0,0,0,39,25.667C39,19.775,33.626,15,27,15S15,19.775,15,25.667s5.374,10.667,12,10.667a13.613,13.613,0,0,0,1.751-.114A9.994,9.994,0,0,0,39,38.429,10.031,10.031,0,0,1,33.909,34.385Z" transform="translate(-15 -15)"/><path class="b" d="M37,52.067a1.067,1.067,0,1,1,1.067,1.067A1.066,1.066,0,0,1,37,52.067Z" transform="translate(-31.133 -41.4)"/><path class="b" d="M57,52.067a1.067,1.067,0,1,1,1.067,1.067A1.066,1.066,0,0,1,57,52.067Z" transform="translate(-45.8 -41.4)"/><path class="b" d="M77,52.067a1.067,1.067,0,1,1,1.067,1.067A1.066,1.066,0,0,1,77,52.067Z" transform="translate(-60.467 -41.4)"/></g></svg>