<svg xmlns="http://www.w3.org/2000/svg" width="32" height="32" viewBox="0 0 32 32"><defs><style>.a,.b{fill:none;}.b{stroke:#092a5e;stroke-linecap:round;stroke-linejoin:round;stroke-width:1.5px;}</style></defs><rect class="a" width="32" height="32"/><g transform="translate(2.667 2.667)"><circle class="b" cx="13.333" cy="13.333" r="13.333"/><path class="b" d="M37.788,80l-3.3,2.667Z" transform="translate(-27.959 -61.333)"/><path class="b" d="M73.137,80.011,76.3,82.675Z" transform="translate(-56.3 -61.341)"/><path class="b" d="M29,47.667,25,45Z" transform="translate(-21 -35.667)"/><path class="b" d="M80,47.715,84,45Z" transform="translate(-61.333 -35.667)"/><path class="b" d="M60,25.333,60.014,20Z" transform="translate(-46.667 -17.333)"/><path class="b" d="M48.817,50.648h-7.01l-1.836-6.675,5.341-4.013,5.358,4.011Z" transform="translate(-31.979 -31.971)"/><path class="b" d="M37.213,22.047,33.42,20.384l.418-5.08m-6.555-3.859-3.171,2.3L20.93,11.437m-6.72,4.006.569,4.958-3.747,1.286m2.258,10.505,4.005.2.549,3.773m12.356.069.556-3.85,4.217-.306" transform="translate(-10.756 -11.054)"/></g></svg>