<svg xmlns="http://www.w3.org/2000/svg" width="32" height="32" viewBox="0 0 32 32"><defs><style>.a,.b{fill:none;}.b{stroke:#092a5e;stroke-linecap:round;stroke-linejoin:round;stroke-width:1.5px;}</style></defs><rect class="a" width="32" height="32"/><g transform="translate(5.333 3.733)"><path class="b" d="M41.245,99.624H23.912V98.29a1.251,1.251,0,0,1,1.333-1.333H39.912a1.251,1.251,0,0,1,1.333,1.333Z" transform="translate(-22.869 -74.835)"/><path class="b" d="M22.377,36.121V23.764A8.424,8.424,0,0,0,20,18.381a14.226,14.226,0,0,1,7.591-3.889,56.991,56.991,0,0,1,9.79-.479c6.382,0,4.226,9.59-.337,14.665L37,36.121Z" transform="translate(-20 -13.999)"/><path class="b" d="M73.315,33.889s-2.455-5.786-1.3-7.17a3.241,3.241,0,0,1,3.142-.289c.782.6.538,3.139.272,3.936A22.186,22.186,0,0,1,73.315,33.889Z" transform="translate(-57.916 -22.909)"/><path class="b" d="M83.912,78.29l2.667-1.333" transform="translate(-66.869 -60.168)"/></g></svg>