<svg xmlns="http://www.w3.org/2000/svg" width="32" height="32" viewBox="0 0 32 32"><defs><style>.a,.b{fill:none;}.b{stroke:#092a5e;stroke-linecap:round;stroke-linejoin:round;stroke-width:1.5px;}</style></defs><rect class="a" width="32" height="32"/><g transform="translate(6.379 8.852)"><path class="b" d="M50.3,38H62.509" transform="translate(-43.266 -36.718)"/><path class="b" d="M50.3,60H62.509" transform="translate(-43.266 -52.851)"/><path class="b" d="M50.3,82H62.509" transform="translate(-43.266 -68.984)"/><line class="b" y1="1.985" x2="1.985"/><line class="b" y2="5.459" transform="translate(1.985 0)"/><line class="b" x2="2.482" transform="translate(0.744 5.459)"/><path class="b" d="M24.357,66.818a1.937,1.937,0,0,1,1.864-1.16A1.65,1.65,0,0,1,27.888,67.3c0,1.089-1.038,1.515-1.667,1.879-1.055.612-1.667.811-1.667,2.119h3.333" transform="translate(-24.24 -56.999)"/></g></svg>