<svg xmlns="http://www.w3.org/2000/svg" width="32" height="32" viewBox="0 0 32 32"><defs><style>.a,.b{fill:none;}.b{stroke:#092a5e;stroke-linecap:round;stroke-linejoin:round;stroke-width:1.5px;}</style></defs><rect class="a" width="32" height="32"/><g transform="translate(4 10.933)"><path class="b" d="M15.267,72A15.036,15.036,0,0,0,15,73.867" transform="translate(-15 -63.733)"/><path class="b" d="M21.067,57A11.373,11.373,0,0,0,20,58.6" transform="translate(-18.667 -52.733)"/><path class="b" d="M33.6,46A11.467,11.467,0,0,0,32,47.067" transform="translate(-27.467 -44.667)"/><path class="b" d="M48.867,41A15.122,15.122,0,0,0,47,41.267" transform="translate(-38.467 -41)"/><path class="b" d="M96.067,58.6A11.3,11.3,0,0,0,95,57" transform="translate(-73.667 -52.733)"/><path class="b" d="M103.267,73.867A15.035,15.035,0,0,0,103,72" transform="translate(-79.533 -63.733)"/><path class="b" d="M66.133,41.267A19.3,19.3,0,0,0,64,41" transform="translate(-50.933 -41)"/><path class="b" d="M83.6,47.067A11.373,11.373,0,0,0,82,46" transform="translate(-64.133 -44.667)"/></g></svg>