<svg xmlns="http://www.w3.org/2000/svg" width="32" height="32" viewBox="0 0 32 32"><defs><style>.a,.b{fill:none;}.b{stroke:#092a5e;stroke-linecap:round;stroke-linejoin:round;stroke-width:1.5px;}</style></defs><rect class="a" width="32" height="32"/><g transform="translate(4 3.333)"><line class="b" y1="18.667" transform="translate(12 6.667)"/><line class="b" x1="4" transform="translate(10 25.333)"/><line class="b" x1="13.333" transform="translate(5.333 16.667)"/><path class="b" d="M27,12.5c-6.627,0-12,2.985-12,6.667H39C39,15.485,33.627,12.5,27,12.5Z" transform="translate(-15 -12.5)"/><g transform="translate(17.333 13.333)"><line class="b" x1="5.926" transform="translate(0 7.164)"/><line class="b" x1="0.741" y2="7.164" transform="translate(5.926)"/><line class="b" x1="0.741" y1="4.836" transform="translate(5.926 7.164)"/><line class="b" x1="0.741" y2="4.836" transform="translate(0 7.164)"/></g><g transform="translate(0 13.333)"><line class="b" x1="5.926" transform="translate(0.741 7.164)"/><line class="b" x1="0.741" y1="7.164"/><line class="b" x1="0.741" y2="4.836" transform="translate(0 7.164)"/><line class="b" x2="0.741" y2="4.836" transform="translate(5.926 7.164)"/></g></g></svg>