<svg xmlns="http://www.w3.org/2000/svg" width="32" height="32" viewBox="0 0 32 32"><defs><style>.a,.b{fill:none;}.b{stroke:#092a5e;stroke-linecap:round;stroke-linejoin:round;stroke-width:1.5px;}</style></defs><rect class="a" width="32" height="32"/><g transform="translate(4 9.333)"><path class="b" d="M15,46.2V36.333a1.333,1.333,0,0,1,2.667,0c0,2.667,2.667,2.667,4,2.667Q24.333,39,27,36.333L25.667,35l2.667,1.333,9.333,5.333A4.69,4.69,0,0,1,39,45.133V46.2a2.133,2.133,0,0,1-2.133,2.133H17.133A2.133,2.133,0,0,1,15,46.2Z" transform="translate(-15 -35)"/><path class="b" d="M72.2,40.5l-1.333,2.309Zm2.309,1.333-1.333,2.309Zm2.31,1.333-1.333,2.309Z" transform="translate(-55.968 -39.033)"/><path class="b" d="M15,75H39" transform="translate(-15 -64.333)"/></g></svg>