<svg xmlns="http://www.w3.org/2000/svg" width="32" height="32" viewBox="0 0 32 32"><defs><style>.a,.b{fill:none;}.b{stroke:#092a5e;stroke-linecap:round;stroke-linejoin:round;stroke-width:1.5px;}</style></defs><rect class="a" width="32" height="32"/><g transform="translate(5.3 3.994)"><path class="b" d="M81.265,90.685a2.206,2.206,0,1,1-2.206-2.206A2.206,2.206,0,0,1,81.265,90.685Z" transform="translate(-61.66 -68.879)"/><path class="b" d="M31.265,90.664a2.206,2.206,0,1,1-2.206-2.206A2.206,2.206,0,0,1,31.265,90.664Z" transform="translate(-24.993 -68.863)"/><path class="b" d="M35.125,34.573V32.2l16-17.222,1.333,1.289" transform="translate(-31.058 -14.979)"/><path class="b" d="M39.42,39.112l9.566,1.278,2.538-14.305" transform="translate(-34.208 -23.123)"/><path class="b" d="M19.875,68.852,22.43,64.9h1.645" transform="translate(-19.875 -51.585)"/><path class="b" d="M53.633,34.946a1.067,1.067,0,1,1-1.067-1.067A1.067,1.067,0,0,1,53.633,34.946Z" transform="translate(-43.067 -28.839)"/></g></svg>