<svg xmlns="http://www.w3.org/2000/svg" xmlns:xlink="http://www.w3.org/1999/xlink" width="32" height="32" viewBox="0 0 32 32"><defs><style>.a,.c{fill:none;}.b{clip-path:url(#a);}.c{stroke:#092a5e;stroke-linecap:round;stroke-linejoin:round;stroke-width:1.5px;}</style><clipPath id="a"><rect class="a" width="32" height="32"/></clipPath></defs><g class="b"><rect class="a" width="32" height="32"/><g transform="translate(2.667 4)"><path class="c" d="M28.667,39s-.027-6.26,0-7.405-.267-1.518-2.133-2.77l-5.12-3.436c2.08-1.012,2.053-3.01,2.08-4.155V19.155a4.27,4.27,0,0,0-1.067-3.063A4.443,4.443,0,0,0,19.333,15a4.443,4.443,0,0,0-3.093,1.092,4.39,4.39,0,0,0-1.067,3.063v2.078c.027,1.145-.027,3.143,2.08,4.155l-5.12,3.436C10.267,30.077,10,30.45,10,31.595V39Z" transform="translate(-10 -15)"/><path class="c" d="M70.558,42.333h7.636s-.019-4.521,0-5.348-.193-1.1-1.541-2l-3.7-2.482a2.961,2.961,0,0,0,1.5-3V28a3.084,3.084,0,0,0-.77-2.212,3.558,3.558,0,0,0-4.468,0A3.17,3.17,0,0,0,68.448,28v1.5a2.93,2.93,0,0,0,1.5,3l-3.322,2.229" transform="translate(-51.528 -22.333)"/></g></g></svg>