<svg xmlns="http://www.w3.org/2000/svg" width="32" height="32" viewBox="0 0 32 32"><defs><style>.a,.b{fill:none;}.b{stroke:#092a5e;stroke-linecap:round;stroke-linejoin:round;stroke-width:1.5px;}</style></defs><rect class="a" width="32" height="32"/><g transform="translate(4.377 3.261)"><path class="b" d="M52.3,77.141a2.82,2.82,0,0,1-1.442-.017,4.163,4.163,0,0,0,.25-1.444,4.456,4.456,0,0,0-.078-.791,4.681,4.681,0,0,0-.281-.966c-.031-.077-.057-.155-.093-.232a4.6,4.6,0,0,0-2.065-2.16,3.129,3.129,0,0,1,6.027-.031l-.029.014a4.6,4.6,0,0,0-2.091,2.18c-.035.076-.062.154-.094.229a4.707,4.707,0,0,0-.282.967,4.527,4.527,0,0,0-.077.792,4.174,4.174,0,0,0,.255,1.459Z" transform="translate(-40.01 -54.027)"/><path class="b" d="M33.456,29.361c.017-.169.026-.339.026-.51a5.4,5.4,0,0,0-.157-1.274,14.877,14.877,0,0,1,3.432,1.09,1.951,1.951,0,0,0,2.593-.881,1.639,1.639,0,0,0-.889-2.572h0a20.407,20.407,0,0,0-5.727-1.648,5.879,5.879,0,0,0,1.2-4.74,3.459,3.459,0,1,0-4.5-4.78,5.9,5.9,0,0,0-2.911,0,3.469,3.469,0,1,0-4.5,4.778,5.8,5.8,0,0,0-.1,1.036,5.938,5.938,0,0,0,1.3,3.7A20.466,20.466,0,0,0,17.5,25.211a1.918,1.918,0,0,0-.89,2.573,1.949,1.949,0,0,0,2.593.881,14.856,14.856,0,0,1,3.431-1.09,5.4,5.4,0,0,0-.158,1.274c0,.173.011.341.026.509" transform="translate(-16.414 -12.228)"/><path class="b" d="M34.3,84.317a3.774,3.774,0,0,0,2.111-3.5,4.455,4.455,0,0,0-.078-.791,4.681,4.681,0,0,0-.281-.966c-.031-.077-.057-.155-.093-.232a4.6,4.6,0,0,0-2.091-2.173,3.965,3.965,0,0,0-1.74-.425,3.771,3.771,0,0,0-.478.051,3.284,3.284,0,0,0-1,.279,3.762,3.762,0,0,0-2.1,3.494A4.679,4.679,0,0,0,29,82.045a4.341,4.341,0,0,0,3.829,2.593Z" transform="translate(-25.311 -59.161)"/><path class="b" d="M65.121,84.639a4.348,4.348,0,0,0,3.831-2.593,4.7,4.7,0,0,0,.452-1.993,3.758,3.758,0,0,0-2.105-3.5,3.419,3.419,0,0,0-.991-.274,3.617,3.617,0,0,0-.482-.052,3.957,3.957,0,0,0-1.739.421A4.6,4.6,0,0,0,62,78.828c-.035.076-.062.154-.094.229a4.707,4.707,0,0,0-.282.967,4.527,4.527,0,0,0-.077.792,3.778,3.778,0,0,0,2.106,3.5Z" transform="translate(-49.509 -59.161)"/><path class="b" d="M53.977,41.5a3.15,3.15,0,0,1-.4.6,3.119,3.119,0,0,1-5.133-.6,3.043,3.043,0,0,1-.354-1.4,3.121,3.121,0,0,1,6.242,0,3.028,3.028,0,0,1-.354,1.4" transform="translate(-39.642 -30.394)"/></g></svg>