<svg xmlns="http://www.w3.org/2000/svg" width="32" height="32" viewBox="0 0 32 32"><defs><style>.a,.b{fill:none;}.b{stroke:#092a5e;stroke-linecap:round;stroke-linejoin:round;stroke-width:1.5px;}</style></defs><rect class="a" width="32" height="32"/><g transform="translate(2.667 5.85)"><line class="b" x2="26.667" transform="translate(0 9.633)"/><line class="b" y2="10.667" transform="translate(26.667 9.633)"/><line class="b" y2="10.667" transform="translate(0 9.633)"/><path class="b" d="M78.75,32.563a5,5,0,0,0-10,0" transform="translate(-53.083 -26.063)"/><line class="b" x2="12" transform="translate(14.667 6.5)"/><line class="b" x1="1.667" transform="translate(19.833)"/><line class="b" y2="2.6" transform="translate(24.717 6.5)"/><line class="b" y2="2.6" transform="translate(16.617 6.5)"/><line class="b" y2="1.5" transform="translate(20.667)"/><path class="b" d="M23.75,32.563a5,5,0,0,0-10,0" transform="translate(-12.75 -26.063)"/><line class="b" x2="12" transform="translate(0 6.5)"/><line class="b" x1="1.667" transform="translate(5.167)"/><line class="b" y2="2.6" transform="translate(10.05 6.5)"/><line class="b" y2="2.6" transform="translate(1.95 6.5)"/><line class="b" y2="1.5" transform="translate(6)"/><path class="b" d="M10,85.589c1.666,0,1.666-1.263,3.333-1.263S15,85.589,16.665,85.589,18.331,84.326,20,84.326s1.666,1.263,3.333,1.263S25,84.326,26.663,84.326,28.33,85.589,30,85.589s1.668-1.263,3.335-1.263S35,85.589,36.667,85.589" transform="translate(-10 -67.689)"/></g></svg>