<svg xmlns="http://www.w3.org/2000/svg" width="32" height="32" viewBox="0 0 32 32"><defs><style>.a,.b{fill:none;}.b{stroke:#092a5e;stroke-linecap:round;stroke-linejoin:round;stroke-width:1.5px;}</style></defs><rect class="a" width="32" height="32"/><g transform="translate(8 4)"><path class="b" d="M37.667,90.333l-2.667-4L36.333,85l1.333,1.333" transform="translate(-33.667 -66.333)"/><path class="b" d="M75,90.333l2.667-4L76.333,85,75,86.333" transform="translate(-63 -66.333)"/><path class="b" d="M46,55.333,40.667,50H35.333L30,55.333" transform="translate(-30 -40.667)"/><path class="b" d="M50,17.667a2.667,2.667,0,1,1,2.667,2.667A2.667,2.667,0,0,1,50,17.667Z" transform="translate(-44.667 -15)"/><path class="b" d="M55.333,50v6.667H50V50" transform="translate(-44.667 -40.667)"/></g></svg>