<svg xmlns="http://www.w3.org/2000/svg" xmlns:xlink="http://www.w3.org/1999/xlink" width="32" height="32" viewBox="0 0 32 32"><defs><style>.a,.c{fill:none;}.b{clip-path:url(#a);}.c{stroke:#092a5e;stroke-linecap:round;stroke-linejoin:round;stroke-width:1.5px;}</style><clipPath id="a"><rect class="a" width="32" height="32"/></clipPath></defs><g class="b"><rect class="a" width="32" height="32"/><g transform="translate(4 7.2)"><path class="c" d="M15,86V82H39v4" transform="translate(-15 -67.333)"/><path class="c" d="M25,51V49.667C25,48.2,25.9,47,27,47h4c1.1,0,2,1.2,2,2.667V51m2.667,0V49.667c0-1.467.9-2.667,2-2.667h4c1.1,0,2,1.2,2,2.667V51" transform="translate(-22.333 -41.667)"/><path class="c" d="M17.667,29.135A2.134,2.134,0,0,1,19.8,27H34.2a2.133,2.133,0,0,1,2.132,2.135v7.2H17.667ZM15,38.464a2.133,2.133,0,0,1,2.135-2.131h19.73A2.133,2.133,0,0,1,39,38.464v3.2H15Z" transform="translate(-15 -27)"/></g></g></svg>