<svg xmlns="http://www.w3.org/2000/svg" width="32" height="32" viewBox="0 0 32 32"><defs><style>.a,.b{fill:none;}.b{stroke:#092a5e;stroke-linecap:round;stroke-linejoin:round;stroke-width:1.5px;}</style></defs><rect class="a" width="32" height="32"/><g transform="translate(4 4)"><path class="b" d="M27,39A12,12,0,1,1,39,27,12,12,0,0,1,27,39Z" transform="translate(-15 -15)"/><path class="b" d="M57.067,58.133a1.067,1.067,0,1,1,1.067-1.067A1.067,1.067,0,0,1,57.067,58.133Z" transform="translate(-45.067 -45.067)"/><path class="b" d="M41.667,48.333A6.667,6.667,0,1,0,35,41.667,6.667,6.667,0,0,0,41.667,48.333Z" transform="translate(-29.667 -29.667)"/></g></svg>