<svg xmlns="http://www.w3.org/2000/svg" width="32" height="32" viewBox="0 0 32 32"><defs><style>.a,.b,.c{fill:none;}.b,.c{stroke:#092a5e;stroke-linecap:round;stroke-width:1.5px;}.b{stroke-linejoin:round;}</style></defs><rect class="a" width="32" height="32"/><g transform="translate(4 4)"><line class="b" y2="14.667" transform="translate(24 9.333)"/><line class="b" y2="14.667" transform="translate(18.667 9.333)"/><line class="b" y1="24"/><path class="b" d="M23,35H36.867A2.133,2.133,0,0,1,39,37.133V39H15" transform="translate(-15 -29.667)"/><path class="c" d="M2.133,0H5.867A2.133,2.133,0,0,1,8,2.133v1.2H0v-1.2A2.133,2.133,0,0,1,2.133,0Z" transform="translate(0 2)"/><path class="c" d="M2.133,0H5.867A2.133,2.133,0,0,1,8,2.133v1.2H0v-1.2A2.133,2.133,0,0,1,2.133,0Z" transform="translate(0 14)"/><line class="b" x1="24" transform="translate(0 21.333)"/><line class="b" x2="16" transform="translate(8 17.333)"/><line class="b" x2="5.333" transform="translate(18.667 13.333)"/></g></svg>