<svg xmlns="http://www.w3.org/2000/svg" width="32" height="32" viewBox="0 0 32 32"><defs><style>.a,.b{fill:none;}.b{stroke:#092a5e;stroke-linecap:round;stroke-linejoin:round;stroke-width:1.5px;}</style></defs><rect class="a" width="32" height="32"/><g transform="translate(4 4)"><path class="b" d="M41.42,51.119l.1-2.07a4,4,0,0,1,.425-7.574A2.134,2.134,0,0,1,43.97,40H45.23a2.134,2.134,0,0,1,2.03,1.475,4,4,0,0,1,.425,7.574l.1,2.07A2.129,2.129,0,0,1,48.6,52.8v1.067a2.126,2.126,0,0,1-.643,1.526,2.134,2.134,0,0,1-2.026,1.937l-.1,0H43.367a2.134,2.134,0,0,1-2.125-1.939,2.127,2.127,0,0,1-.643-1.526V52.8a2.129,2.129,0,0,1,.82-1.681Z" transform="translate(-32.6 -33.333)"/><path class="b" d="M26.37,21.667h-7.1A4.267,4.267,0,0,1,15,17.4V15" transform="translate(-15 -15)"/><path class="b" d="M73.731,15v2.133a4.5,4.5,0,0,1-4.267,4.533h-7.1" transform="translate(-49.731 -15)"/><path class="b" d="M32.133,25.333A2.133,2.133,0,0,1,30,23.2V20" transform="translate(-26 -18.667)"/><path class="b" d="M84.133,20v2.845A2.466,2.466,0,0,1,82,25.333" transform="translate(-64.133 -18.667)"/><path class="b" d="M45,29V25h0" transform="translate(-37 -22.333)"/><line class="b" y2="4" transform="translate(16 2.667)"/><path class="b" d="M54.767,60H54.5" transform="translate(-43.967 -48)"/><path class="b" d="M65,60h.267" transform="translate(-51.667 -48)"/></g></svg>