<svg xmlns="http://www.w3.org/2000/svg" width="32" height="32" viewBox="0 0 32 32"><defs><style>.a,.b{fill:none;}.b{stroke:#092a5e;stroke-linecap:round;stroke-linejoin:round;stroke-width:1.5px;}</style></defs><rect class="a" width="32" height="32"/><g transform="translate(4 4.667)"><line class="b" y2="12" transform="translate(24 10.667)"/><line class="b" y2="9.333" transform="translate(12 13.333)"/><line class="b" y2="9.333" transform="translate(4 13.333)"/><line class="b" y2="9.333" transform="translate(8 13.333)"/><line class="b" y2="5.333" transform="translate(16 17.333)"/><line class="b" y2="9.333" transform="translate(20 13.333)"/><line class="b" y1="12" transform="translate(0 10.667)"/><line class="b" x2="24" transform="translate(0 22.667)"/><line class="b" x2="12" transform="translate(0 13.333)"/><line class="b" x1="12" transform="translate(0 10.667)"/><rect class="b" width="8" height="8" transform="translate(12 9.333)"/><line class="b" x1="4" transform="translate(20 10.667)"/><line class="b" x1="4" transform="translate(20 13.333)"/><path class="b" d="M58.533,17.5a1.916,1.916,0,0,1,0,2.667,1.9,1.9,0,0,0,0,2.667" transform="translate(-46.533 -17.5)"/><path class="b" d="M78.533,17.5a1.916,1.916,0,0,1,0,2.667,1.9,1.9,0,0,0,0,2.667" transform="translate(-61.2 -17.5)"/><path class="b" d="M38.533,17.5a1.916,1.916,0,0,1,0,2.667,1.9,1.9,0,0,0,0,2.667" transform="translate(-31.867 -17.5)"/></g></svg>