<svg xmlns="http://www.w3.org/2000/svg" width="32" height="32" viewBox="0 0 32 32"><defs><style>.a,.b{fill:none;}.b{stroke:#092a5e;stroke-linecap:round;stroke-linejoin:round;stroke-width:1.5px;}</style></defs><rect class="a" width="32" height="32"/><g transform="translate(5.562 3.598)"><path class="b" d="M44.933,74.557c0,1.674-3.756,3.03-8.39,3.03s-8.39-1.357-8.39-3.03a1.117,1.117,0,0,1,.006-.116" transform="translate(-26.207 -58.189)"/><path class="b" d="M44.931,74.441c0,.053,0,.107,0,.161a8.39,8.39,0,1,1-16.78,0c0-.054,0-.107,0-.161" transform="translate(-26.207 -58.189)"/><path class="b" d="M72.614,41.384a10.912,10.912,0,0,1,4-.323s.55,4.169-1.69,6.4-6.421,1.685-6.421,1.685" transform="translate(-55.799 -33.667)"/><path class="b" d="M27.474,49.181A7.285,7.285,0,0,1,22.6,47.438c-2.233-2.24-1.685-6.421-1.685-6.421s3.855-.509,6.137,1.444" transform="translate(-20.855 -33.634)"/><path class="b" d="M43.459,30.652s-4.582-4.849-1.4-6.768c0,0-1.491-4.348,1.614-5.494,0,0,.508-6.063,5.763-4.693s2.53,6.934,2.53,6.934a4,4,0,0,1-3.09,5.447S50.461,29.042,43.459,30.652Z" transform="translate(-35.58 -13.495)"/><path class="b" d="M50.4,45.062a12.469,12.469,0,0,1,2.086-5.719,8.256,8.256,0,0,1,2.561-6.2" transform="translate(-42.524 -27.904)"/></g></svg>