<svg xmlns="http://www.w3.org/2000/svg" width="32" height="32" viewBox="0 0 32 32"><defs><style>.a,.b{fill:none;}.b{stroke:#092a5e;stroke-linecap:round;stroke-linejoin:round;stroke-width:1.5px;}</style></defs><rect class="a" width="32" height="32"/><g transform="translate(4 3.733)"><path class="b" d="M30.087,34.605a5.247,5.247,0,0,0,10.154-1.688A9.5,9.5,0,1,0,29.5,23.5" transform="translate(-25.633 -14)"/><path class="b" d="M47.647,67.563a2.689,2.689,0,0,1-2.689,2.689v1.5c0,.76.554,1.439,1.7,1.439" transform="translate(-36.969 -53.28)"/><path class="b" d="M51.313,39.73a5.378,5.378,0,1,0-6.355-5.289v2.2" transform="translate(-36.969 -25.046)"/><path class="b" d="M15,15.75,39.067,39.817" transform="translate(-15 -15.283)"/></g></svg>