<svg xmlns="http://www.w3.org/2000/svg" xmlns:xlink="http://www.w3.org/1999/xlink" width="32" height="32" viewBox="0 0 32 32"><defs><style>.a,.c{fill:none;}.b{clip-path:url(#a);}.c{stroke:#092a5e;stroke-linecap:round;stroke-linejoin:round;stroke-width:1.5px;}</style><clipPath id="a"><rect class="a" width="32" height="32"/></clipPath></defs><g class="b"><rect class="a" width="32" height="32"/><path class="c" d="M38.687,27h.646a2,2,0,0,1,0,4H38.4a2,2,0,0,1,0,4H37.333a2,2,0,1,1-.044,4h-8l-2.667-1.333H21.289S20.046,36.333,20,31s1.289-6.667,1.289-6.667h2.667c1.333,0,5.167-1.5,8-9.333,6.667,0,1.333,8,1.333,8h5.333a2,2,0,0,1,0,4" transform="translate(-14.667 -12.333)"/></g></svg>