<svg xmlns="http://www.w3.org/2000/svg" width="32" height="32" viewBox="0 0 32 32"><defs><style>.a,.b{fill:none;}.b{stroke:#092a5e;stroke-linecap:round;stroke-linejoin:round;stroke-width:1.5px;}</style></defs><rect class="a" width="32" height="32"/><g transform="translate(2.479 7.203)"><g transform="translate(12.771)"><path class="b" d="M58.695,27.419s-4.8,13.035,2.734,15.159S71.458,30.839,71.458,30.839A13.758,13.758,0,0,0,58.695,27.419Z" transform="translate(-57.188 -27.009)"/><g transform="translate(3.814 5.131)"><g transform="translate(4.505 1.207)"><path class="b" d="M88.384,50.924a1.1,1.1,0,0,1,1.507.4" transform="translate(-88.384 -50.776)"/></g><path class="b" d="M71.492,46.4A1.1,1.1,0,0,1,73,46.8" transform="translate(-71.492 -46.25)"/></g><path class="b" d="M74.765,65.345a3,3,0,0,1-4.094-1.1" transform="translate(-67.075 -54.318)"/></g><g transform="translate(0 1.838)"><path class="b" d="M22.061,34.291A13.758,13.758,0,0,0,9.3,37.711s2.36,13.689,9.948,11.761A5.312,5.312,0,0,0,23.2,45.346" transform="translate(-9.298 -33.901)"/><g transform="translate(4.433 5.114)"><g transform="translate(4.504)"><path class="b" d="M42.812,53.631a1.1,1.1,0,0,1,1.507-.4" transform="translate(-42.812 -53.079)"/></g><g transform="translate(0 1.207)"><path class="b" d="M25.921,58.157a1.1,1.1,0,0,1,1.507-.4" transform="translate(-25.921 -57.605)"/></g></g><path class="b" d="M34.784,74.248a3,3,0,0,1,4.094-1.1" transform="translate(-27.988 -62.39)"/></g></g></svg>