<svg xmlns="http://www.w3.org/2000/svg" width="91.333" height="40" viewBox="0 0 91.333 40"><defs><style>.a{fill:#d40e14;}</style></defs><path class="a" d="M275.266,98.587a.684.684,0,0,0,.2-.249,1.091,1.091,0,0,0,.061-.416V84.312a1.139,1.139,0,0,0-.061-.423.592.592,0,0,0-.2-.235,2.755,2.755,0,0,0-1.434-.235,2.9,2.9,0,0,0-1.458.235.59.59,0,0,0-.2.235,1.13,1.13,0,0,0-.061.423V97.924a.816.816,0,0,0,.256.668,2.823,2.823,0,0,0,1.458.235A2.632,2.632,0,0,0,275.266,98.587Zm-10.153.078a5.186,5.186,0,0,0,1.918-1.112,4.293,4.293,0,0,0,1.1-1.686,6.209,6.209,0,0,0,.35-2.116V84.312a.8.8,0,0,0-.235-.668,4.563,4.563,0,0,0-2.892,0,.527.527,0,0,0-.2.235,1.235,1.235,0,0,0-.056.423v9.4a3.6,3.6,0,0,1-.2,1.14,1.789,1.789,0,0,1-.851.969,3.418,3.418,0,0,1-1.735.383,4.013,4.013,0,0,1-1.274-.179,2.215,2.215,0,0,1-.863-.505,1.975,1.975,0,0,1-.489-.79,3.165,3.165,0,0,1-.155-1.018V84.3a.8.8,0,0,0-.235-.668,4.563,4.563,0,0,0-2.892,0,.527.527,0,0,0-.2.235,1.234,1.234,0,0,0-.056.423v9.441a6.213,6.213,0,0,0,.35,2.116,4.292,4.292,0,0,0,1.1,1.686,5.185,5.185,0,0,0,1.918,1.112,10.01,10.01,0,0,0,5.59.021Zm-16.625-.078a.63.63,0,0,0,.188-.249,1.176,1.176,0,0,0,.056-.416V86.313h3.392a2.116,2.116,0,0,0,.611-.073.623.623,0,0,0,.367-.317,2.793,2.793,0,0,0,.235-.835,5.822,5.822,0,0,0,.082-.856,1.41,1.41,0,0,0-.045-.407.428.428,0,0,0-.179-.235.705.705,0,0,0-.235-.082,2.7,2.7,0,0,0-.444-.028H241.937a2.116,2.116,0,0,0-.611.073.625.625,0,0,0-.362.324,2.4,2.4,0,0,0-.235.733,5.257,5.257,0,0,0-.082.94,1.456,1.456,0,0,0,.045.416.414.414,0,0,0,.188.235,1.41,1.41,0,0,0,.679.11h3.78V97.924a.778.778,0,0,0,.256.668,2.823,2.823,0,0,0,1.458.235A2.694,2.694,0,0,0,248.487,98.587Z" transform="translate(-184.19 -64.012)"/><path class="a" d="M2.874,48.32H14.76a2.14,2.14,0,0,1,2.389,2.024c.386,1.841.235,3.122-1.845,3.268l-3.731.275C14.319,71.241,30.38,76.9,39.118,58.205c1.448-3.094,1.921-3.656,3.505-3.263,2.149.534,2.443,1.646,1.411,4.756C36.485,82.732,11.079,85.043,6.1,54.272l-3.03.219C.6,54.667.5,52.587.5,51.43.5,49.14,1.349,48.32,2.874,48.32Z" transform="translate(-0.5 -37.179)"/><circle class="a" cx="4.41" cy="4.41" r="4.41" transform="translate(41.178)"/></svg>